# Blender v2.83.2 OBJ File: ''
# www.blender.org
mtllib wood.mtl
o Cylinder
v 0.000000 0.335612 -0.860903
v 0.000000 0.021321 0.923761
v 0.035353 0.332183 -0.861507
v 0.035353 0.017892 0.923157
v 0.069347 0.322027 -0.863295
v 0.069347 0.007736 0.921369
v 0.100676 0.305535 -0.866200
v 0.100676 -0.008756 0.918464
v 0.128137 0.283340 -0.870108
v 0.128137 -0.030951 0.914556
v 0.150673 0.256296 -0.874871
v 0.150673 -0.057995 0.909793
v 0.167419 0.225441 -0.880305
v 0.167419 -0.088849 0.904359
v 0.177731 0.191962 -0.886200
v 0.177731 -0.122328 0.898463
v 0.181213 0.157145 -0.892332
v 0.181213 -0.157145 0.892332
v 0.177731 0.122328 -0.898463
v 0.177731 -0.191962 0.886200
v 0.167419 0.088849 -0.904359
v 0.167419 -0.225441 0.880305
v 0.150673 0.057995 -0.909793
v 0.150673 -0.256296 0.874871
v 0.128137 0.030951 -0.914556
v 0.128137 -0.283340 0.870108
v 0.100676 0.008756 -0.918464
v 0.100676 -0.305535 0.866200
v 0.069347 -0.007736 -0.921369
v 0.069347 -0.322027 0.863295
v 0.035353 -0.017892 -0.923157
v 0.035353 -0.332183 0.861507
v -0.000000 -0.021321 -0.923761
v -0.000000 -0.335612 0.860903
v -0.035353 -0.017892 -0.923157
v -0.035353 -0.332183 0.861507
v -0.069347 -0.007736 -0.921369
v -0.069347 -0.322027 0.863295
v -0.100676 0.008756 -0.918464
v -0.100676 -0.305535 0.866200
v -0.128137 0.030951 -0.914556
v -0.128137 -0.283340 0.870108
v -0.150673 0.057995 -0.909793
v -0.150673 -0.256296 0.874871
v -0.167419 0.088849 -0.904359
v -0.167419 -0.225441 0.880305
v -0.177731 0.122328 -0.898463
v -0.177731 -0.191962 0.886200
v -0.181213 0.157146 -0.892332
v -0.181213 -0.157145 0.892332
v -0.177731 0.191963 -0.886200
v -0.177731 -0.122328 0.898463
v -0.167419 0.225442 -0.880304
v -0.167419 -0.088849 0.904359
v -0.150673 0.256296 -0.874871
v -0.150673 -0.057995 0.909793
v -0.128137 0.283340 -0.870108
v -0.128137 -0.030950 0.914556
v -0.100676 0.305535 -0.866200
v -0.100676 -0.008756 0.918464
v -0.069347 0.322027 -0.863295
v -0.069347 0.007736 0.921369
v -0.035353 0.332183 -0.861507
v -0.035353 0.017892 0.923157
vt 0.653847 0.379522
vt 0.653847 0.968963
vt 0.644232 0.968963
vt 0.644232 0.379522
vt 0.634616 0.968963
vt 0.634616 0.379522
vt 0.625001 0.968963
vt 0.625001 0.379522
vt 0.615386 0.968963
vt 0.615386 0.379522
vt 0.605770 0.968963
vt 0.605770 0.379522
vt 0.596155 0.968963
vt 0.596155 0.379522
vt 0.586539 0.968963
vt 0.586539 0.379522
vt 0.576924 0.968963
vt 0.576924 0.379522
vt 0.567308 0.968963
vt 0.567308 0.379522
vt 0.557693 0.968963
vt 0.557693 0.379522
vt 0.548077 0.968963
vt 0.548077 0.379522
vt 0.538462 0.968963
vt 0.538462 0.379522
vt 0.528846 0.968963
vt 0.528846 0.379522
vt 0.519231 0.968963
vt 0.519231 0.379522
vt 0.509615 0.968963
vt 0.509615 0.379522
vt 0.500000 0.968963
vt 0.500000 0.379522
vt 0.490385 0.968963
vt 0.490385 0.379522
vt 0.480769 0.968963
vt 0.480769 0.379522
vt 0.471154 0.968963
vt 0.471154 0.379522
vt 0.461538 0.968963
vt 0.461538 0.379522
vt 0.451923 0.968963
vt 0.451923 0.379522
vt 0.442307 0.968963
vt 0.442307 0.379522
vt 0.432692 0.968963
vt 0.432692 0.379522
vt 0.423076 0.968963
vt 0.423076 0.379522
vt 0.413461 0.968963
vt 0.413461 0.379522
vt 0.403845 0.968963
vt 0.403845 0.379522
vt 0.394230 0.968963
vt 0.394230 0.379522
vt 0.384614 0.968963
vt 0.384614 0.379522
vt 0.374999 0.968963
vt 0.374999 0.379522
vt 0.365384 0.968963
vt 0.365384 0.379522
vt 0.526759 0.316254
vt 0.498032 0.319083
vt 0.469305 0.316254
vt 0.441681 0.307874
vt 0.416224 0.294267
vt 0.393910 0.275954
vt 0.375597 0.253641
vt 0.361990 0.228183
vt 0.353610 0.200560
vt 0.350781 0.171833
vt 0.353610 0.143106
vt 0.361990 0.115482
vt 0.375597 0.090025
vt 0.393910 0.067711
vt 0.416223 0.049398
vt 0.441681 0.035791
vt 0.469304 0.027412
vt 0.498031 0.024582
vt 0.526759 0.027412
vt 0.554382 0.035791
vt 0.579839 0.049398
vt 0.602153 0.067711
vt 0.620466 0.090025
vt 0.634073 0.115482
vt 0.642452 0.143105
vt 0.645282 0.171833
vt 0.642452 0.200560
vt 0.634073 0.228183
vt 0.620466 0.253640
vt 0.602153 0.275954
vt 0.579839 0.294267
vt 0.554382 0.307874
vt 0.355768 0.968963
vt 0.355768 0.379522
vt 0.346153 0.968963
vt 0.346153 0.379522
vt 0.833339 0.323190
vt 0.863258 0.320243
vt 0.892028 0.311516
vt 0.918542 0.297344
vt 0.941782 0.278271
vt 0.960854 0.255031
vt 0.975026 0.228517
vt 0.983754 0.199748
vt 0.986700 0.169828
vt 0.983754 0.139909
vt 0.975026 0.111139
vt 0.960854 0.084625
vt 0.941782 0.061385
vt 0.918542 0.042312
vt 0.892028 0.028140
vt 0.863258 0.019413
vt 0.833339 0.016466
vt 0.803419 0.019413
vt 0.774649 0.028140
vt 0.748135 0.042313
vt 0.724895 0.061385
vt 0.705823 0.084625
vt 0.691651 0.111139
vt 0.682923 0.139909
vt 0.679977 0.169828
vt 0.682924 0.199748
vt 0.691651 0.228517
vt 0.705823 0.255032
vt 0.724895 0.278272
vt 0.748136 0.297344
vt 0.774650 0.311516
vt 0.803419 0.320243
vn 0.0980 0.9801 0.1726
vn 0.2903 0.9424 0.1660
vn 0.4714 0.8686 0.1530
vn 0.6344 0.7613 0.1341
vn 0.7730 0.6248 0.1100
vn 0.8819 0.4643 0.0818
vn 0.9569 0.2859 0.0503
vn 0.9952 0.0965 0.0170
vn 0.9952 -0.0965 -0.0170
vn 0.9569 -0.2859 -0.0503
vn 0.8819 -0.4643 -0.0818
vn 0.7730 -0.6248 -0.1100
vn 0.6344 -0.7613 -0.1341
vn 0.4714 -0.8686 -0.1530
vn 0.2903 -0.9424 -0.1660
vn 0.0980 -0.9801 -0.1726
vn -0.0980 -0.9801 -0.1726
vn -0.2903 -0.9424 -0.1660
vn -0.4714 -0.8686 -0.1530
vn -0.6344 -0.7613 -0.1341
vn -0.7730 -0.6248 -0.1100
vn -0.8819 -0.4643 -0.0818
vn -0.9569 -0.2859 -0.0503
vn -0.9952 -0.0965 -0.0170
vn -0.9952 0.0965 0.0170
vn -0.9569 0.2859 0.0503
vn -0.8819 0.4643 0.0818
vn -0.7730 0.6248 0.1100
vn -0.6344 0.7613 0.1341
vn -0.4714 0.8686 0.1530
vn 0.0000 -0.1734 0.9848
vn -0.2903 0.9424 0.1660
vn -0.0980 0.9801 0.1726
vn 0.0000 0.1734 -0.9848
usemtl Material.001
s off
f 1/1/1 2/2/1 4/3/1 3/4/1
f 3/4/2 4/3/2 6/5/2 5/6/2
f 5/6/3 6/5/3 8/7/3 7/8/3
f 7/8/4 8/7/4 10/9/4 9/10/4
f 9/10/5 10/9/5 12/11/5 11/12/5
f 11/12/6 12/11/6 14/13/6 13/14/6
f 13/14/7 14/13/7 16/15/7 15/16/7
f 15/16/8 16/15/8 18/17/8 17/18/8
f 17/18/9 18/17/9 20/19/9 19/20/9
f 19/20/10 20/19/10 22/21/10 21/22/10
f 21/22/11 22/21/11 24/23/11 23/24/11
f 23/24/12 24/23/12 26/25/12 25/26/12
f 25/26/13 26/25/13 28/27/13 27/28/13
f 27/28/14 28/27/14 30/29/14 29/30/14
f 29/30/15 30/29/15 32/31/15 31/32/15
f 31/32/16 32/31/16 34/33/16 33/34/16
f 33/34/17 34/33/17 36/35/17 35/36/17
f 35/36/18 36/35/18 38/37/18 37/38/18
f 37/38/19 38/37/19 40/39/19 39/40/19
f 39/40/20 40/39/20 42/41/20 41/42/20
f 41/42/21 42/41/21 44/43/21 43/44/21
f 43/44/22 44/43/22 46/45/22 45/46/22
f 45/46/23 46/45/23 48/47/23 47/48/23
f 47/48/24 48/47/24 50/49/24 49/50/24
f 49/50/25 50/49/25 52/51/25 51/52/25
f 51/52/26 52/51/26 54/53/26 53/54/26
f 53/54/27 54/53/27 56/55/27 55/56/27
f 55/56/28 56/55/28 58/57/28 57/58/28
f 57/58/29 58/57/29 60/59/29 59/60/29
f 59/60/30 60/59/30 62/61/30 61/62/30
f 4/63/31 2/64/31 64/65/31 62/66/31 60/67/31 58/68/31 56/69/31 54/70/31 52/71/31 50/72/31 48/73/31 46/74/31 44/75/31 42/76/31 40/77/31 38/78/31 36/79/31 34/80/31 32/81/31 30/82/31 28/83/31 26/84/31 24/85/31 22/86/31 20/87/31 18/88/31 16/89/31 14/90/31 12/91/31 10/92/31 8/93/31 6/94/31
f 61/62/32 62/61/32 64/95/32 63/96/32
f 63/96/33 64/95/33 2/97/33 1/98/33
f 1/99/34 3/100/34 5/101/34 7/102/34 9/103/34 11/104/34 13/105/34 15/106/34 17/107/34 19/108/34 21/109/34 23/110/34 25/111/34 27/112/34 29/113/34 31/114/34 33/115/34 35/116/34 37/117/34 39/118/34 41/119/34 43/120/34 45/121/34 47/122/34 49/123/34 51/124/34 53/125/34 55/126/34 57/127/34 59/128/34 61/129/34 63/130/34
o Cylinder.001
v -0.707409 -0.009285 -0.594369
v 0.561907 0.336190 0.651940
v -0.685151 0.001269 -0.619965
v 0.584166 0.346745 0.626344
v -0.660952 0.005136 -0.645682
v 0.608365 0.350612 0.600627
v -0.635742 0.002168 -0.670534
v 0.633574 0.347643 0.575775
v -0.610491 -0.007522 -0.693565
v 0.658826 0.337954 0.552743
v -0.586169 -0.023561 -0.713891
v 0.683148 0.321915 0.532418
v -0.563710 -0.045333 -0.730729
v 0.705607 0.300143 0.515580
v -0.543977 -0.072001 -0.743434
v 0.725339 0.273475 0.502875
v -0.527730 -0.102540 -0.751516
v 0.741587 0.242936 0.494793
v -0.515592 -0.135777 -0.754665
v 0.753725 0.209699 0.491644
v -0.508029 -0.170434 -0.752760
v 0.761288 0.175042 0.493549
v -0.505332 -0.205180 -0.745875
v 0.763984 0.140296 0.500434
v -0.507606 -0.238679 -0.734274
v 0.761711 0.106797 0.512035
v -0.514762 -0.269644 -0.718402
v 0.754555 0.075832 0.527907
v -0.526525 -0.296885 -0.698870
v 0.742791 0.048591 0.547439
v -0.542445 -0.319355 -0.676428
v 0.726872 0.026121 0.569880
v -0.561907 -0.336190 -0.651940
v 0.707409 0.009285 0.594369
v -0.584166 -0.346745 -0.626344
v 0.685151 -0.001269 0.619965
v -0.608365 -0.350612 -0.600627
v 0.660952 -0.005136 0.645682
v -0.633574 -0.347643 -0.575775
v 0.635742 -0.002168 0.670534
v -0.658826 -0.337954 -0.552743
v 0.610491 0.007522 0.693565
v -0.683148 -0.321914 -0.532418
v 0.586169 0.023561 0.713891
v -0.705607 -0.300143 -0.515580
v 0.563710 0.045333 0.730729
v -0.725339 -0.273475 -0.502875
v 0.543977 0.072001 0.743434
v -0.741587 -0.242935 -0.494793
v 0.527730 0.102540 0.751516
v -0.753725 -0.209699 -0.491644
v 0.515591 0.135777 0.754665
v -0.761288 -0.175041 -0.493549
v 0.508029 0.170434 0.752760
v -0.763984 -0.140296 -0.500434
v 0.505332 0.205180 0.745875
v -0.761711 -0.106796 -0.512035
v 0.507606 0.238679 0.734274
v -0.754555 -0.075832 -0.527907
v 0.514762 0.269644 0.718402
v -0.742791 -0.048591 -0.547439
v 0.526526 0.296885 0.698870
v -0.726872 -0.026121 -0.569881
v 0.542445 0.319355 0.676428
vt 0.653847 0.379522
vt 0.653847 0.968963
vt 0.644232 0.968963
vt 0.644232 0.379522
vt 0.634616 0.968963
vt 0.634616 0.379522
vt 0.625001 0.968963
vt 0.625001 0.379522
vt 0.615386 0.968963
vt 0.615386 0.379522
vt 0.605770 0.968963
vt 0.605770 0.379522
vt 0.596155 0.968963
vt 0.596155 0.379522
vt 0.586539 0.968963
vt 0.586539 0.379522
vt 0.576924 0.968963
vt 0.576924 0.379522
vt 0.567308 0.968963
vt 0.567308 0.379522
vt 0.557693 0.968963
vt 0.557693 0.379522
vt 0.548077 0.968963
vt 0.548077 0.379522
vt 0.538462 0.968963
vt 0.538462 0.379522
vt 0.528846 0.968963
vt 0.528846 0.379522
vt 0.519231 0.968963
vt 0.519231 0.379522
vt 0.509615 0.968963
vt 0.509615 0.379522
vt 0.500000 0.968963
vt 0.500000 0.379522
vt 0.490385 0.968963
vt 0.490385 0.379522
vt 0.480769 0.968963
vt 0.480769 0.379522
vt 0.471154 0.968963
vt 0.471154 0.379522
vt 0.461538 0.968963
vt 0.461538 0.379522
vt 0.451923 0.968963
vt 0.451923 0.379522
vt 0.442307 0.968963
vt 0.442307 0.379522
vt 0.432692 0.968963
vt 0.432692 0.379522
vt 0.423076 0.968963
vt 0.423076 0.379522
vt 0.413461 0.968963
vt 0.413461 0.379522
vt 0.403845 0.968963
vt 0.403845 0.379522
vt 0.394230 0.968963
vt 0.394230 0.379522
vt 0.384614 0.968963
vt 0.384614 0.379522
vt 0.374999 0.968963
vt 0.374999 0.379522
vt 0.365384 0.968963
vt 0.365384 0.379522
vt 0.526759 0.316254
vt 0.498032 0.319083
vt 0.469305 0.316254
vt 0.441681 0.307874
vt 0.416224 0.294267
vt 0.393910 0.275954
vt 0.375597 0.253641
vt 0.361990 0.228183
vt 0.353610 0.200560
vt 0.350781 0.171833
vt 0.353610 0.143106
vt 0.361990 0.115482
vt 0.375597 0.090025
vt 0.393910 0.067711
vt 0.416223 0.049398
vt 0.441681 0.035791
vt 0.469304 0.027412
vt 0.498031 0.024582
vt 0.526759 0.027412
vt 0.554382 0.035791
vt 0.579839 0.049398
vt 0.602153 0.067711
vt 0.620466 0.090025
vt 0.634073 0.115482
vt 0.642452 0.143105
vt 0.645282 0.171833
vt 0.642452 0.200560
vt 0.634073 0.228183
vt 0.620466 0.253640
vt 0.602153 0.275954
vt 0.579839 0.294267
vt 0.554382 0.307874
vt 0.355768 0.968963
vt 0.355768 0.379522
vt 0.346153 0.968963
vt 0.346153 0.379522
vt 0.833339 0.323190
vt 0.863258 0.320243
vt 0.892028 0.311516
vt 0.918542 0.297344
vt 0.941782 0.278271
vt 0.960854 0.255031
vt 0.975026 0.228517
vt 0.983754 0.199748
vt 0.986700 0.169828
vt 0.983754 0.139909
vt 0.975026 0.111139
vt 0.960854 0.084625
vt 0.941782 0.061385
vt 0.918542 0.042312
vt 0.892028 0.028140
vt 0.863258 0.019413
vt 0.833339 0.016466
vt 0.803419 0.019413
vt 0.774649 0.028140
vt 0.748135 0.042313
vt 0.724895 0.061385
vt 0.705823 0.084625
vt 0.691651 0.111139
vt 0.682923 0.139909
vt 0.679977 0.169828
vt 0.682924 0.199748
vt 0.691651 0.228517
vt 0.705823 0.255032
vt 0.724895 0.278272
vt 0.748136 0.297344
vt 0.774650 0.311516
vt 0.803419 0.320243
vn -0.3417 0.9356 0.0887
vn -0.2129 0.9756 -0.0536
vn -0.0759 0.9781 -0.1938
vn 0.0640 0.9430 -0.3266
vn 0.2014 0.8717 -0.4468
vn 0.3311 0.7668 -0.5498
vn 0.4481 0.6325 -0.6317
vn 0.5479 0.4739 -0.6894
vn 0.6266 0.2971 -0.7205
vn 0.6812 0.1089 -0.7240
vn 0.7096 -0.0836 -0.6996
vn 0.7108 -0.2728 -0.6483
vn 0.6847 -0.4515 -0.5722
vn 0.6322 -0.6129 -0.4740
vn 0.5555 -0.7507 -0.3576
vn 0.4574 -0.8597 -0.2275
vn 0.3417 -0.9356 -0.0887
vn 0.2129 -0.9756 0.0536
vn 0.0759 -0.9781 0.1938
vn -0.0640 -0.9430 0.3266
vn -0.2014 -0.8717 0.4468
vn -0.3311 -0.7668 0.5498
vn -0.4481 -0.6325 0.6317
vn -0.5479 -0.4739 0.6894
vn -0.6266 -0.2971 0.7205
vn -0.6812 -0.1089 0.7240
vn -0.7096 0.0836 0.6996
vn -0.7108 0.2728 0.6483
vn -0.6847 0.4515 0.5722
vn -0.6322 0.6129 0.4740
vn 0.7005 0.1906 0.6878
vn -0.5555 0.7507 0.3576
vn -0.4574 0.8597 0.2275
vn -0.7005 -0.1906 -0.6878
usemtl Material.001
s off
f 65/131/35 66/132/35 68/133/35 67/134/35
f 67/134/36 68/133/36 70/135/36 69/136/36
f 69/136/37 70/135/37 72/137/37 71/138/37
f 71/138/38 72/137/38 74/139/38 73/140/38
f 73/140/39 74/139/39 76/141/39 75/142/39
f 75/142/40 76/141/40 78/143/40 77/144/40
f 77/144/41 78/143/41 80/145/41 79/146/41
f 79/146/42 80/145/42 82/147/42 81/148/42
f 81/148/43 82/147/43 84/149/43 83/150/43
f 83/150/44 84/149/44 86/151/44 85/152/44
f 85/152/45 86/151/45 88/153/45 87/154/45
f 87/154/46 88/153/46 90/155/46 89/156/46
f 89/156/47 90/155/47 92/157/47 91/158/47
f 91/158/48 92/157/48 94/159/48 93/160/48
f 93/160/49 94/159/49 96/161/49 95/162/49
f 95/162/50 96/161/50 98/163/50 97/164/50
f 97/164/51 98/163/51 100/165/51 99/166/51
f 99/166/52 100/165/52 102/167/52 101/168/52
f 101/168/53 102/167/53 104/169/53 103/170/53
f 103/170/54 104/169/54 106/171/54 105/172/54
f 105/172/55 106/171/55 108/173/55 107/174/55
f 107/174/56 108/173/56 110/175/56 109/176/56
f 109/176/57 110/175/57 112/177/57 111/178/57
f 111/178/58 112/177/58 114/179/58 113/180/58
f 113/180/59 114/179/59 116/181/59 115/182/59
f 115/182/60 116/181/60 118/183/60 117/184/60
f 117/184/61 118/183/61 120/185/61 119/186/61
f 119/186/62 120/185/62 122/187/62 121/188/62
f 121/188/63 122/187/63 124/189/63 123/190/63
f 123/190/64 124/189/64 126/191/64 125/192/64
f 68/193/65 66/194/65 128/195/65 126/196/65 124/197/65 122/198/65 120/199/65 118/200/65 116/201/65 114/202/65 112/203/65 110/204/65 108/205/65 106/206/65 104/207/65 102/208/65 100/209/65 98/210/65 96/211/65 94/212/65 92/213/65 90/214/65 88/215/65 86/216/65 84/217/65 82/218/65 80/219/65 78/220/65 76/221/65 74/222/65 72/223/65 70/224/65
f 125/192/66 126/191/66 128/225/66 127/226/66
f 127/226/67 128/225/67 66/227/67 65/228/67
f 65/229/68 67/230/68 69/231/68 71/232/68 73/233/68 75/234/68 77/235/68 79/236/68 81/237/68 83/238/68 85/239/68 87/240/68 89/241/68 91/242/68 93/243/68 95/244/68 97/245/68 99/246/68 101/247/68 103/248/68 105/249/68 107/250/68 109/251/68 111/252/68 113/253/68 115/254/68 117/255/68 119/256/68 121/257/68 123/258/68 125/259/68 127/260/68
o Cylinder.002
v 0.887824 -0.029584 -0.254328
v -0.915264 0.071694 -0.104595
v 0.890384 0.005070 -0.246942
v -0.912705 0.106347 -0.097210
v 0.893372 0.037582 -0.232943
v -0.909716 0.138859 -0.083211
v 0.896675 0.066704 -0.212870
v -0.906413 0.167981 -0.063137
v 0.900165 0.091317 -0.187493
v -0.902923 0.192594 -0.037761
v 0.903708 0.110474 -0.157788
v -0.899381 0.211751 -0.008056
v 0.907167 0.123440 -0.124896
v -0.895921 0.224717 0.024836
v 0.910411 0.129716 -0.090082
v -0.892677 0.230993 0.059650
v 0.913314 0.129062 -0.054683
v -0.889775 0.230339 0.095049
v 0.915764 0.121501 -0.020060
v -0.887324 0.222778 0.129673
v 0.917668 0.107325 0.012458
v -0.885420 0.208602 0.162190
v 0.918953 0.087079 0.041619
v -0.884135 0.188356 0.191352
v 0.919568 0.061540 0.066304
v -0.883520 0.162818 0.216036
v 0.919491 0.031691 0.085564
v -0.883597 0.132968 0.235296
v 0.918724 -0.001323 0.098658
v -0.884364 0.099955 0.248391
v 0.917297 -0.036231 0.105085
v -0.885791 0.065046 0.254817
v 0.915264 -0.071694 0.104595
v -0.887824 0.029583 0.254328
v 0.912705 -0.106347 0.097209
v -0.890384 -0.005070 0.246942
v 0.909716 -0.138859 0.083211
v -0.893372 -0.037582 0.232943
v 0.906413 -0.167981 0.063137
v -0.896675 -0.066704 0.212870
v 0.902923 -0.192594 0.037760
v -0.900165 -0.091317 0.187493
v 0.899381 -0.211751 0.008055
v -0.903708 -0.110474 0.157788
v 0.895921 -0.224717 -0.024836
v -0.907167 -0.123440 0.124896
v 0.892677 -0.230993 -0.059651
v -0.910411 -0.129716 0.090082
v 0.889775 -0.230339 -0.095050
v -0.913314 -0.129062 0.054683
v 0.887324 -0.222778 -0.129673
v -0.915764 -0.121501 0.020059
v 0.885420 -0.208602 -0.162190
v -0.917668 -0.107325 -0.012458
v 0.884135 -0.188356 -0.191352
v -0.918953 -0.087079 -0.041619
v 0.883520 -0.162817 -0.216037
v -0.919568 -0.061540 -0.066304
v 0.883597 -0.132968 -0.235296
v -0.919491 -0.031691 -0.085564
v 0.884364 -0.099954 -0.248391
v -0.918724 0.001323 -0.098659
v 0.885791 -0.065046 -0.254817
v -0.917297 0.036232 -0.105085
vt 0.653847 0.379522
vt 0.653847 0.968963
vt 0.644232 0.968963
vt 0.644232 0.379522
vt 0.634616 0.968963
vt 0.634616 0.379522
vt 0.625001 0.968963
vt 0.625001 0.379522
vt 0.615386 0.968963
vt 0.615386 0.379522
vt 0.605770 0.968963
vt 0.605770 0.379522
vt 0.596155 0.968963
vt 0.596155 0.379522
vt 0.586539 0.968963
vt 0.586539 0.379522
vt 0.576924 0.968963
vt 0.576924 0.379522
vt 0.567308 0.968963
vt 0.567308 0.379522
vt 0.557693 0.968963
vt 0.557693 0.379522
vt 0.548077 0.968963
vt 0.548077 0.379522
vt 0.538462 0.968963
vt 0.538462 0.379522
vt 0.528846 0.968963
vt 0.528846 0.379522
vt 0.519231 0.968963
vt 0.519231 0.379522
vt 0.509615 0.968963
vt 0.509615 0.379522
vt 0.500000 0.968963
vt 0.500000 0.379522
vt 0.490385 0.968963
vt 0.490385 0.379522
vt 0.480769 0.968963
vt 0.480769 0.379522
vt 0.471154 0.968963
vt 0.471154 0.379522
vt 0.461538 0.968963
vt 0.461538 0.379522
vt 0.451923 0.968963
vt 0.451923 0.379522
vt 0.442307 0.968963
vt 0.442307 0.379522
vt 0.432692 0.968963
vt 0.432692 0.379522
vt 0.423076 0.968963
vt 0.423076 0.379522
vt 0.413461 0.968963
vt 0.413461 0.379522
vt 0.403845 0.968963
vt 0.403845 0.379522
vt 0.394230 0.968963
vt 0.394230 0.379522
vt 0.384614 0.968963
vt 0.384614 0.379522
vt 0.374999 0.968963
vt 0.374999 0.379522
vt 0.365384 0.968963
vt 0.365384 0.379522
vt 0.526759 0.316254
vt 0.498032 0.319083
vt 0.469305 0.316254
vt 0.441681 0.307874
vt 0.416224 0.294267
vt 0.393910 0.275954
vt 0.375597 0.253641
vt 0.361990 0.228183
vt 0.353610 0.200560
vt 0.350781 0.171833
vt 0.353610 0.143106
vt 0.361990 0.115482
vt 0.375597 0.090025
vt 0.393910 0.067711
vt 0.416223 0.049398
vt 0.441681 0.035791
vt 0.469304 0.027412
vt 0.498031 0.024582
vt 0.526759 0.027412
vt 0.554382 0.035791
vt 0.579839 0.049398
vt 0.602153 0.067711
vt 0.620466 0.090025
vt 0.634073 0.115482
vt 0.642452 0.143105
vt 0.645282 0.171833
vt 0.642452 0.200560
vt 0.634073 0.228183
vt 0.620466 0.253640
vt 0.602153 0.275954
vt 0.579839 0.294267
vt 0.554382 0.307874
vt 0.355768 0.968963
vt 0.355768 0.379522
vt 0.346153 0.968963
vt 0.346153 0.379522
vt 0.833339 0.323190
vt 0.863258 0.320243
vt 0.892028 0.311516
vt 0.918542 0.297344
vt 0.941782 0.278271
vt 0.960854 0.255031
vt 0.975026 0.228517
vt 0.983754 0.199748
vt 0.986700 0.169828
vt 0.983754 0.139909
vt 0.975026 0.111139
vt 0.960854 0.084625
vt 0.941782 0.061385
vt 0.918542 0.042312
vt 0.892028 0.028140
vt 0.863258 0.019413
vt 0.833339 0.016466
vt 0.803419 0.019413
vt 0.774649 0.028140
vt 0.748135 0.042313
vt 0.724895 0.061385
vt 0.705823 0.084625
vt 0.691651 0.111139
vt 0.682923 0.139909
vt 0.679977 0.169828
vt 0.682924 0.199748
vt 0.691651 0.228517
vt 0.705823 0.255032
vt 0.724895 0.278272
vt 0.748136 0.297344
vt 0.774650 0.311516
vt 0.803419 0.320243
vn -0.0690 0.2128 -0.9747
vn -0.0536 0.3990 -0.9154
vn -0.0362 0.5699 -0.8209
vn -0.0173 0.7189 -0.6949
vn 0.0022 0.8403 -0.5422
vn 0.0216 0.9293 -0.3686
vn 0.0402 0.9827 -0.1809
vn 0.0572 0.9983 0.0138
vn 0.0721 0.9755 0.2079
vn 0.0841 0.9152 0.3941
vn 0.0930 0.8198 0.5651
vn 0.0982 0.6928 0.7144
vn 0.0997 0.5393 0.8362
vn 0.0974 0.3650 0.9259
vn 0.0913 0.1767 0.9800
vn 0.0817 -0.0184 0.9965
vn 0.0690 -0.2128 0.9747
vn 0.0536 -0.3990 0.9154
vn 0.0362 -0.5699 0.8209
vn 0.0173 -0.7189 0.6949
vn -0.0022 -0.8403 0.5422
vn -0.0216 -0.9293 0.3686
vn -0.0402 -0.9827 0.1809
vn -0.0572 -0.9983 -0.0138
vn -0.0721 -0.9755 -0.2079
vn -0.0841 -0.9152 -0.3941
vn -0.0930 -0.8198 -0.5651
vn -0.0982 -0.6928 -0.7144
vn -0.0997 -0.5393 -0.8362
vn -0.0974 -0.3650 -0.9259
vn -0.9950 0.0559 0.0826
vn -0.0913 -0.1767 -0.9800
vn -0.0817 0.0184 -0.9965
vn 0.9950 -0.0559 -0.0826
usemtl Material.001
s off
f 129/261/69 130/262/69 132/263/69 131/264/69
f 131/264/70 132/263/70 134/265/70 133/266/70
f 133/266/71 134/265/71 136/267/71 135/268/71
f 135/268/72 136/267/72 138/269/72 137/270/72
f 137/270/73 138/269/73 140/271/73 139/272/73
f 139/272/74 140/271/74 142/273/74 141/274/74
f 141/274/75 142/273/75 144/275/75 143/276/75
f 143/276/76 144/275/76 146/277/76 145/278/76
f 145/278/77 146/277/77 148/279/77 147/280/77
f 147/280/78 148/279/78 150/281/78 149/282/78
f 149/282/79 150/281/79 152/283/79 151/284/79
f 151/284/80 152/283/80 154/285/80 153/286/80
f 153/286/81 154/285/81 156/287/81 155/288/81
f 155/288/82 156/287/82 158/289/82 157/290/82
f 157/290/83 158/289/83 160/291/83 159/292/83
f 159/292/84 160/291/84 162/293/84 161/294/84
f 161/294/85 162/293/85 164/295/85 163/296/85
f 163/296/86 164/295/86 166/297/86 165/298/86
f 165/298/87 166/297/87 168/299/87 167/300/87
f 167/300/88 168/299/88 170/301/88 169/302/88
f 169/302/89 170/301/89 172/303/89 171/304/89
f 171/304/90 172/303/90 174/305/90 173/306/90
f 173/306/91 174/305/91 176/307/91 175/308/91
f 175/308/92 176/307/92 178/309/92 177/310/92
f 177/310/93 178/309/93 180/311/93 179/312/93
f 179/312/94 180/311/94 182/313/94 181/314/94
f 181/314/95 182/313/95 184/315/95 183/316/95
f 183/316/96 184/315/96 186/317/96 185/318/96
f 185/318/97 186/317/97 188/319/97 187/320/97
f 187/320/98 188/319/98 190/321/98 189/322/98
f 132/323/99 130/324/99 192/325/99 190/326/99 188/327/99 186/328/99 184/329/99 182/330/99 180/331/99 178/332/99 176/333/99 174/334/99 172/335/99 170/336/99 168/337/99 166/338/99 164/339/99 162/340/99 160/341/99 158/342/99 156/343/99 154/344/99 152/345/99 150/346/99 148/347/99 146/348/99 144/349/99 142/350/99 140/351/99 138/352/99 136/353/99 134/354/99
f 189/322/100 190/321/100 192/355/100 191/356/100
f 191/356/101 192/355/101 130/357/101 129/358/101
f 129/359/102 131/360/102 133/361/102 135/362/102 137/363/102 139/364/102 141/365/102 143/366/102 145/367/102 147/368/102 149/369/102 151/370/102 153/371/102 155/372/102 157/373/102 159/374/102 161/375/102 163/376/102 165/377/102 167/378/102 169/379/102 171/380/102 173/381/102 175/382/102 177/383/102 179/384/102 181/385/102 183/386/102 185/387/102 187/388/102 189/389/102 191/390/102
