# Blender v2.82 (sub 7) OBJ File: ''
# www.blender.org
mtllib hull.mtl
o Cube_Cube.002
v -1.000000 1.000000 1.000000
v -1.000000 -1.000000 -1.000000
v 1.000000 -1.000000 1.000000
v 1.000000 1.000000 -1.000000
vt 0.000000 0.000000
vt 0.000000 0.000000
vt 0.000000 0.000000
vt 0.000000 0.000000
vn -0.5774 -0.5774 0.5774
vn 0.5774 -0.5774 -0.5774
vn 0.5774 0.5774 0.5774
vn -0.5774 0.5774 -0.5774
usemtl Material.003
s off
f 2/1/1 3/2/1 1/3/1
f 2/1/2 4/4/2 3/2/2
f 3/2/3 4/4/3 1/3/3
f 1/3/4 4/4/4 2/1/4
