# Blender v2.82 (sub 7) OBJ File: ''
# www.blender.org
mtllib hull5.mtl
o Cube.003_Cube.006
v -1.000000 -1.002227 -0.999348
v -0.999999 0.997773 1.000652
v -1.000000 -1.002227 1.000652
v 1.000000 -1.002228 1.000652
vt 0.000000 0.000000
vt 0.000000 0.000000
vt 0.000000 0.000000
vt 0.000000 0.000000
vn -0.0000 -1.0000 0.0000
vn -0.0000 0.0000 1.0000
vn -1.0000 0.0000 -0.0000
vn 0.5774 0.5773 -0.5774
usemtl Material.004
s off
f 3/1/1 1/2/1 4/3/1
f 2/4/2 3/1/2 4/3/2
f 3/1/3 2/4/3 1/2/3
f 4/3/4 1/2/4 2/4/4
