# Blender v2.82 (sub 7) OBJ File: ''
# www.blender.org
mtllib hull2.mtl
o Cube.002_Cube.005
v 1.004069 1.000000 -0.999348
v 1.004070 -1.000000 1.000652
v 1.004070 1.000000 1.000652
v -0.995930 1.000000 1.000652
vt 0.000000 0.000000
vt 0.000000 0.000000
vt 0.000000 0.000000
vt 0.000000 0.000000
vn 0.0000 1.0000 0.0000
vn 0.0000 0.0000 1.0000
vn 1.0000 0.0000 -0.0000
vn -0.5774 -0.5774 -0.5774
usemtl Material.004
s off
f 3/1/1 1/2/1 4/3/1
f 2/4/2 3/1/2 4/3/2
f 3/1/3 2/4/3 1/2/3
f 4/3/4 1/2/4 2/4/4
