# Blender v2.82 (sub 7) OBJ File: ''
# www.blender.org
mtllib tris.mtl
o Plane_Plane.001
v -16.201633 -5.000001 10.000000
v -16.201633 5.000001 10.000000
v -16.201633 -5.000001 -10.000000
v -16.201633 5.000001 -10.000000
v 17.122881 -5.000001 10.000000
v 17.122881 5.000001 10.000000
v 17.122881 -5.000001 -10.000000
v 17.122881 5.000001 -10.000000
v 12.951642 -0.302687 9.999999
v 12.951643 -0.302686 -10.000000
v 11.449198 -1.535711 9.999999
v 11.449198 -1.535710 -10.000000
v -6.953890 -3.016136 9.999999
v -6.953890 -3.016135 -10.000000
v -14.743841 4.773829 -10.000000
v -14.743841 4.773828 10.000002
v -8.813826 -2.451929 9.999999
v -8.813826 -2.451928 -10.000000
v -14.766119 5.000001 10.000000
v -14.766119 5.000001 -10.000000
v 15.100885 2.913885 9.999999
v 15.100887 2.913886 -10.000000
v 15.665092 4.773821 -10.000000
v 15.665092 4.773820 10.000002
v 14.184666 1.199759 9.999999
v 14.184666 1.199759 -10.000000
v 15.687368 5.000001 10.000000
v 15.687368 5.000001 -10.000000
v 7.875134 -3.016136 9.999999
v 7.875134 -3.016136 -10.000000
v 9.735070 -2.451931 9.999999
v 9.735070 -2.451931 -10.000000
v -13.263420 1.199765 -10.000000
v -13.263420 1.199763 10.000002
v -12.030397 -0.302681 -10.000000
v -12.030397 -0.302682 10.000002
v -14.179638 2.913892 -10.000000
v -14.179638 2.913891 10.000002
v -10.527952 -1.535707 -10.000000
v -10.527952 -1.535707 10.000002
v 5.940865 -3.206644 9.999999
v 5.940865 -3.206644 -10.000000
vt 0.625000 0.000000
vt 0.375000 0.250000
vt 0.375000 0.000000
vt 0.419834 0.375000
vt 0.424597 0.396622
vt 0.375000 0.500000
vt 0.625000 0.500000
vt 0.375000 0.750000
vt 0.419834 0.875000
vt 0.375000 1.000000
vt 0.125000 0.750000
vt 0.125000 0.500000
vt 0.641047 0.500000
vt 0.625000 0.750000
vt 0.343750 0.939652
vt 0.375000 0.560348
vt 0.343750 0.560348
vt 0.718750 0.939652
vt 0.722404 0.560348
vt 0.718750 0.560348
vt 0.656250 0.939652
vt 0.687500 0.560348
vt 0.656250 0.560348
vt 0.437500 0.939652
vt 0.468750 0.560348
vt 0.437500 0.560348
vt 0.687500 0.939652
vt 0.500000 0.939652
vt 0.531250 0.560348
vt 0.500000 0.560348
vt 0.531250 0.939652
vt 0.562500 0.560348
vt 0.281250 0.939652
vt 0.312500 0.560348
vt 0.281250 0.560348
vt 0.625000 0.939652
vt 0.625000 0.560348
vt 0.858953 0.500000
vt 0.875000 0.750000
vt 0.858953 0.750000
vt 0.375000 0.939652
vt 0.406250 0.560348
vt 0.312500 0.939652
vt 0.468750 0.939652
vt 0.562500 0.939652
vt 0.593750 0.560348
vt 0.593750 0.939652
vt 0.277596 0.939652
vt 0.625000 0.250000
vt 0.572847 0.272603
vt 0.625000 0.266047
vt 0.619346 0.266296
vt 0.625000 0.483953
vt 0.619346 0.483704
vt 0.572847 0.477397
vt 0.529994 0.282845
vt 0.529994 0.467155
vt 0.492433 0.296629
vt 0.461607 0.313424
vt 0.492433 0.453371
vt 0.461607 0.436576
vt 0.438702 0.332586
vt 0.424597 0.353377
vt 0.438702 0.417414
vt 0.572847 0.772603
vt 0.625000 0.766047
vt 0.619345 0.766296
vt 0.625000 0.983953
vt 0.625000 1.000000
vt 0.619346 0.983704
vt 0.572847 0.977397
vt 0.529994 0.782845
vt 0.529994 0.967155
vt 0.492433 0.796629
vt 0.461607 0.813424
vt 0.492433 0.953371
vt 0.461607 0.936576
vt 0.438702 0.832586
vt 0.424597 0.853377
vt 0.438702 0.917414
vt 0.424597 0.896623
vt 0.641047 0.750000
vt 0.722404 0.939652
vt 0.875000 0.500000
vt 0.406250 0.939652
vt 0.277596 0.560348
vn -0.5773 0.5773 0.5773
vn -0.5773 -0.5773 -0.5773
vn -0.5773 -0.5773 0.5773
vn -0.0289 0.6933 -0.7200
vn -0.1333 0.6705 -0.7298
vn 0.5773 -0.5773 -0.5773
vn 0.5773 0.5773 -0.5773
vn 0.5773 -0.5773 0.5773
vn -0.0289 0.6933 0.7200
vn -0.5458 0.6022 -0.5827
vn 0.5773 0.5773 0.5773
vn 0.5684 0.3798 0.7298
vn 0.4834 0.4834 -0.7298
vn 0.5684 0.3798 -0.7298
vn -0.6705 0.1334 0.7299
vn -0.6705 0.1333 -0.7298
vn -0.5684 0.3798 0.7298
vn -0.6316 0.2616 -0.7298
vn -0.5684 0.3798 -0.7298
vn 0.2616 0.6316 0.7298
vn 0.1036 0.6647 -0.7399
vn 0.2616 0.6316 -0.7298
vn -0.6316 0.2616 0.7298
vn -0.1333 0.6705 0.7298
vn -0.2616 0.6316 -0.7298
vn 0.6705 0.1334 0.7298
vn 0.6316 0.2616 -0.7298
vn 0.6705 0.1334 -0.7298
vn -0.4834 0.4834 0.7298
vn -0.4834 0.4834 -0.7298
vn 0.5458 0.6022 -0.5827
vn 0.5458 0.6022 0.5827
vn 0.4834 0.4834 0.7298
vn 0.3798 0.5684 -0.7298
vn 0.6316 0.2616 0.7298
vn 0.1036 0.6647 0.7399
vn -0.2616 0.6316 0.7298
vn -0.3798 0.5684 -0.7298
vn -0.3798 0.5684 0.7298
vn -0.5773 0.5773 -0.5773
vn -0.5458 0.6022 0.5827
vn 0.3798 0.5684 0.7298
usemtl Material.001
s 1
f 2/1/1 3/2/2 1/3/3
f 42/4/4 30/5/5 7/6/6
f 8/7/7 5/8/8 7/6/6
f 5/8/8 41/9/9 1/10/3
f 7/6/6 1/11/3 3/12/2
f 28/13/10 6/14/11 8/7/7
f 34/15/12 35/16/13 33/17/14
f 24/18/15 28/19/10 23/20/16
f 25/21/17 22/22/18 26/23/19
f 17/24/20 14/25/21 18/26/22
f 21/27/23 23/20/16 22/22/18
f 41/28/9 30/29/5 42/30/4
f 29/31/24 32/32/25 30/29/5
f 16/33/26 37/34/27 15/35/28
f 9/36/29 26/23/19 10/37/30
f 20/38/31 2/39/1 19/40/32
f 36/41/33 39/42/34 35/16/13
f 39/42/34 17/24/20 18/26/22
f 38/43/35 33/17/14 37/34/27
f 13/44/36 42/30/4 14/25/21
f 31/45/37 12/46/38 32/32/25
f 11/47/39 10/37/30 12/46/38
f 15/35/28 19/48/32 16/33/26
f 2/1/1 4/49/40 3/2/2
f 3/2/2 4/49/40 37/50/27
f 4/49/40 20/51/31 15/52/28
f 4/49/40 15/52/28 37/50/27
f 28/53/10 8/7/7 23/54/16
f 8/7/7 7/6/6 22/55/18
f 23/54/16 8/7/7 22/55/18
f 3/2/2 37/50/27 33/56/14
f 26/57/19 22/55/18 7/6/6
f 3/2/2 33/56/14 35/58/13
f 3/2/2 35/58/13 39/59/34
f 10/60/30 26/57/19 7/6/6
f 12/61/38 10/60/30 7/6/6
f 3/2/2 39/59/34 18/62/22
f 3/2/2 18/62/22 14/63/21
f 32/64/25 12/61/38 7/6/6
f 30/5/5 32/64/25 7/6/6
f 7/6/6 3/2/2 42/4/4
f 3/2/2 14/63/21 42/4/4
f 8/7/7 6/14/11 5/8/8
f 5/8/8 6/14/11 21/65/23
f 6/14/11 27/66/41 24/67/15
f 6/14/11 24/67/15 21/65/23
f 19/68/32 2/69/1 16/70/26
f 2/69/1 1/10/3 38/71/35
f 16/70/26 2/69/1 38/71/35
f 5/8/8 21/65/23 25/72/17
f 34/73/12 38/71/35 1/10/3
f 5/8/8 25/72/17 9/74/29
f 5/8/8 9/74/29 11/75/39
f 36/76/33 34/73/12 1/10/3
f 40/77/42 36/76/33 1/10/3
f 5/8/8 11/75/39 31/78/37
f 5/8/8 31/78/37 29/79/24
f 17/80/20 40/77/42 1/10/3
f 13/81/36 17/80/20 1/10/3
f 5/8/8 29/79/24 41/9/9
f 41/9/9 13/81/36 1/10/3
f 7/6/6 5/8/8 1/11/3
f 28/13/10 27/82/41 6/14/11
f 34/15/12 36/41/33 35/16/13
f 24/18/15 27/83/41 28/19/10
f 25/21/17 21/27/23 22/22/18
f 17/24/20 13/44/36 14/25/21
f 21/27/23 24/18/15 23/20/16
f 41/28/9 29/31/24 30/29/5
f 29/31/24 31/45/37 32/32/25
f 16/33/26 38/43/35 37/34/27
f 9/36/29 25/21/17 26/23/19
f 20/38/31 4/84/40 2/39/1
f 36/41/33 40/85/42 39/42/34
f 39/42/34 40/85/42 17/24/20
f 38/43/35 34/15/12 33/17/14
f 13/44/36 41/28/9 42/30/4
f 31/45/37 11/47/39 12/46/38
f 11/47/39 9/36/29 10/37/30
f 15/35/28 20/86/31 19/48/32
