# Blender v2.79 (sub 0) OBJ File: ''
# www.blender.org
mtllib gravel_block.mtl
o Cube
v 1.000000 -1.000000 -1.000000
v 1.000000 -1.000000 1.000000
v -1.000000 -1.000000 1.000000
v -1.000000 -1.000000 -1.000000
v 1.000000 1.000000 -0.999999
v 0.999999 1.000000 1.000001
v -1.000000 1.000000 1.000000
v -1.000000 1.000000 -1.000000
vt 0.001227 0.874362
vt 0.124863 0.874362
vt 0.124863 0.997997
vt 0.001227 0.997997
vt 0.125214 0.874855
vt 0.125214 0.998490
vt 0.001579 0.998490
vt 0.001579 0.874855
vt 0.125016 0.998175
vt 0.001380 0.998175
vt 0.001380 0.874540
vt 0.125016 0.874540
vt 0.001380 0.998090
vt 0.125016 0.874454
vt 0.125016 0.998090
vt 0.125016 0.998197
vt 0.001380 0.998197
vt 0.001380 0.874561
vt 0.125016 0.874561
vt 0.001053 0.874835
vt 0.124688 0.874835
vt 0.124688 0.998471
vt 0.001053 0.998471
vn 0.0000 -1.0000 0.0000
vn 0.0000 1.0000 0.0000
vn 1.0000 0.0000 0.0000
vn -0.0000 -0.0000 1.0000
vn -1.0000 -0.0000 -0.0000
vn 0.0000 0.0000 -1.0000
usemtl Material
s off
f 1/1/1 2/2/1 3/3/1 4/4/1
f 5/5/2 8/6/2 7/7/2 6/8/2
f 1/9/3 5/10/3 6/11/3 2/12/3
f 2/13/4 6/11/4 7/14/4 3/15/4
f 3/16/5 7/17/5 8/18/5 4/19/5
f 5/20/6 1/21/6 4/22/6 8/23/6
