# Blender v2.79 (sub 0) OBJ File: ''
# www.blender.org
mtllib sand_block.mtl
o Cube
v 1.000000 -1.000000 -1.000000
v 1.000000 -1.000000 1.000000
v -1.000000 -1.000000 1.000000
v -1.000000 -1.000000 -1.000000
v 1.000000 1.000000 -0.999999
v 0.999999 1.000000 1.000001
v -1.000000 1.000000 1.000000
v -1.000000 1.000000 -1.000000
vt 0.256600 0.748141
vt 0.380288 0.748141
vt 0.380288 0.871829
vt 0.256600 0.871829
vt 0.380013 0.748259
vt 0.380013 0.871947
vt 0.256325 0.871947
vt 0.256325 0.748259
vt 0.380382 0.871689
vt 0.256694 0.871689
vt 0.256694 0.748001
vt 0.380382 0.748001
vt 0.256694 0.871579
vt 0.256694 0.747891
vt 0.380382 0.747891
vt 0.380382 0.871579
vt 0.380382 0.871798
vt 0.256694 0.871798
vt 0.256694 0.748110
vt 0.380382 0.748110
vt 0.256791 0.747813
vt 0.380479 0.747813
vt 0.380479 0.871501
vt 0.256791 0.871501
vn 0.0000 -1.0000 0.0000
vn 0.0000 1.0000 0.0000
vn 1.0000 0.0000 0.0000
vn -0.0000 -0.0000 1.0000
vn -1.0000 -0.0000 -0.0000
vn 0.0000 0.0000 -1.0000
usemtl Material
s off
f 1/1/1 2/2/1 3/3/1 4/4/1
f 5/5/2 8/6/2 7/7/2 6/8/2
f 1/9/3 5/10/3 6/11/3 2/12/3
f 2/13/4 6/14/4 7/15/4 3/16/4
f 3/17/5 7/18/5 8/19/5 4/20/5
f 5/21/6 1/22/6 4/23/6 8/24/6
