# Blender v2.79 (sub 0) OBJ File: ''
# www.blender.org
mtllib grass_block.mtl
v 1.000000 -1.000000 1.000000
v -1.000000 -1.000000 -1.000000
v 1.000000 -1.000000 -1.000000
v -1.000000 1.000000 -1.000000
v 0.999999 1.000000 1.000001
v 1.000000 1.000000 -0.999999
v -1.000000 -1.000000 1.000000
v -1.000000 1.000000 1.000000
vt 0.381174 0.874064
vt 0.255612 0.999627
vt 0.255612 0.874064
vt 0.634894 0.999540
vt 0.509332 0.873977
vt 0.634894 0.873977
vt 0.507924 0.999536
vt 0.382362 0.873973
vt 0.507924 0.873973
vt 0.507931 0.999526
vt 0.382368 0.873963
vt 0.507931 0.873963
vt 0.508037 0.873942
vt 0.382474 0.999505
vt 0.382474 0.873942
vt 0.382460 0.873950
vt 0.508023 0.999513
vt 0.382460 0.999513
vt 0.381174 0.999627
vt 0.509332 0.999540
vt 0.382362 0.999536
vt 0.382368 0.999526
vt 0.508037 0.999505
vt 0.508023 0.873950
vn 0.0000 -1.0000 -0.0000
vn -0.0000 1.0000 0.0000
vn 1.0000 0.0000 0.0000
vn -0.0000 -0.0000 1.0000
vn -1.0000 0.0000 0.0000
vn 0.0000 0.0000 -1.0000
usemtl None
s 1
f 1/1/1 2/2/1 3/3/1
f 4/4/2 5/5/2 6/6/2
f 6/7/3 1/8/3 3/9/3
f 5/10/4 7/11/4 1/12/4
f 7/13/5 4/14/5 2/15/5
f 3/16/6 4/17/6 6/18/6
f 1/1/1 7/19/1 2/2/1
f 4/4/2 8/20/2 5/5/2
f 6/7/3 5/21/3 1/8/3
f 5/10/4 8/22/4 7/11/4
f 7/13/5 8/23/5 4/14/5
f 3/16/6 2/24/6 4/17/6
