# Blender v2.82 (sub 7) OBJ File: ''
# www.blender.org
mtllib map1.mtl
o plane
v 7.867223 1.194491 7.867223
v 5.900417 1.194491 5.900417
v 5.900417 1.194491 7.867223
v 7.867223 1.194491 5.900417
v 0.000000 0.000000 0.000000
v 0.000000 0.000000 -1.966806
v -1.966806 0.000000 -1.966806
v 1.966806 0.000000 0.000000
v 7.867223 1.194491 0.000000
v 7.867223 1.194491 -1.966806
v 5.900417 1.194491 -1.966806
v 0.000000 1.194491 7.867223
v -1.966806 1.194491 5.900417
v -1.966806 1.194491 7.867223
v 0.000000 1.194491 5.900417
v -1.966806 0.000000 0.000000
v -3.933612 0.000000 0.000000
v -5.900417 1.194491 -1.966806
v -5.900417 1.194491 0.000000
v -3.933612 0.000000 -1.966806
v -3.933612 0.000000 -3.933612
v -5.900417 1.194491 -5.900417
v -5.900417 1.194491 -3.933612
v -3.933612 -0.000000 3.933612
v -3.933612 -0.000000 1.966806
v -5.900417 1.194491 1.966806
v -1.966806 -0.000000 3.933612
v 0.000000 -0.000000 3.933612
v 0.000000 -0.000000 1.966806
v -1.966806 -0.000000 1.966806
v -3.933612 1.194491 7.867223
v -5.900417 1.194491 5.900417
v -5.900417 1.194491 7.867223
v -3.933612 1.194491 5.900417
v -5.900417 1.194491 3.933612
v 3.933612 0.000000 -3.933612
v 3.933612 1.194491 -5.900417
v 1.966806 1.194491 -5.900417
v 5.900417 1.194491 -3.933612
v 7.867223 1.194491 -3.933612
v 7.867223 1.194491 -5.900417
v 5.900417 1.194491 -5.900417
v 0.000000 0.000000 -3.933612
v 1.966806 0.000000 -3.933612
v 0.000000 1.194491 -5.900417
v 1.966806 0.000000 -1.966806
v 3.933612 0.000000 0.000000
v 5.900417 1.194491 0.000000
v 3.933612 0.000000 -1.966806
v -3.933612 1.194491 -5.900417
v -1.966806 0.000000 -3.933612
v -1.966806 1.194491 -5.900417
v 3.933612 -0.000000 3.933612
v 3.933612 -0.000000 1.966806
v 1.966806 -0.000000 1.966806
v 5.900417 1.194491 3.933612
v 7.867223 1.194491 3.933612
v 7.867223 1.194491 1.966806
v 5.900417 1.194491 1.966806
v 3.933612 1.194491 7.867223
v 1.966806 1.194491 5.900417
v 1.966806 1.194491 7.867223
v 3.933612 1.194491 5.900417
v 1.966806 -0.000000 3.933612
v -1.966806 1.194491 -7.867223
v -3.933612 1.194491 -7.867223
v 0.000000 1.194491 -7.867223
v -5.900417 1.194491 -7.867223
v -7.867223 1.194491 -7.867223
v 5.900417 1.194491 -7.867223
v 3.933612 1.194491 -7.867223
v 7.867223 1.194491 -7.867223
v 1.966806 1.194491 -7.867223
v -7.867223 1.194491 1.966806
v -7.867223 1.194491 3.933612
v -7.867223 1.194491 0.000000
v -7.867223 1.194491 5.900417
v -7.867223 1.194491 7.867223
v -7.867223 1.194491 -5.900417
v -7.867223 1.194491 -3.933612
v -7.867223 1.194491 -1.966806
vt 0.999900 0.000100
vt 0.874925 0.125075
vt 0.874925 0.000100
vt 0.999900 0.125075
vt 0.500000 0.500000
vt 0.500000 0.624975
vt 0.375025 0.624975
vt 0.624975 0.500000
vt 0.999900 0.500000
vt 0.999900 0.624975
vt 0.874925 0.624975
vt 0.500000 0.000100
vt 0.375025 0.125075
vt 0.375025 0.000100
vt 0.500000 0.125075
vt 0.375025 0.500000
vt 0.250050 0.500000
vt 0.125075 0.624975
vt 0.125075 0.500000
vt 0.250050 0.624975
vt 0.250050 0.749950
vt 0.125075 0.874925
vt 0.125075 0.749950
vt 0.250050 0.250050
vt 0.250050 0.375025
vt 0.125075 0.375025
vt 0.375025 0.250050
vt 0.500000 0.250050
vt 0.500000 0.375025
vt 0.375025 0.375025
vt 0.250050 0.000100
vt 0.125075 0.125075
vt 0.125075 0.000100
vt 0.250050 0.125075
vt 0.125075 0.250050
vt 0.749950 0.749950
vt 0.749950 0.874925
vt 0.624975 0.874925
vt 0.874925 0.749950
vt 0.999900 0.749950
vt 0.999900 0.874925
vt 0.874925 0.874925
vt 0.500000 0.749950
vt 0.624975 0.749950
vt 0.500000 0.874925
vt 0.624975 0.624975
vt 0.749950 0.500000
vt 0.874925 0.500000
vt 0.749950 0.624975
vt 0.250050 0.874925
vt 0.375025 0.749950
vt 0.375025 0.874925
vt 0.749950 0.250050
vt 0.749950 0.375025
vt 0.624975 0.375025
vt 0.874925 0.250050
vt 0.999900 0.250050
vt 0.999900 0.375025
vt 0.874925 0.375025
vt 0.749950 0.000100
vt 0.624975 0.125075
vt 0.624975 0.000100
vt 0.749950 0.125075
vt 0.624975 0.250050
vt 0.375025 0.999900
vt 0.250050 0.999900
vt 0.500000 0.999900
vt 0.125075 0.999900
vt 0.000100 0.999900
vt 0.874925 0.999900
vt 0.749950 0.999900
vt 0.999900 0.999900
vt 0.624975 0.999900
vt 0.000100 0.375025
vt 0.000100 0.250050
vt 0.000100 0.500000
vt 0.000100 0.125075
vt 0.000100 0.000100
vt 0.000100 0.874925
vt 0.000100 0.749950
vt 0.000100 0.624975
vn 0.0000 1.0000 0.0000
vn -0.0721 0.9948 -0.0721
vn -0.2695 0.9630 0.0000
vn 0.0000 0.9630 -0.2695
vn 0.2695 0.9630 0.0000
vn 0.2069 0.9562 0.2069
vn 0.0721 0.9948 0.0721
vn 0.2520 0.9343 -0.2520
vn 0.0695 0.9767 -0.2029
vn 0.2029 0.9767 -0.0695
vn -0.2520 0.9343 0.2520
vn -0.0695 0.9767 0.2029
vn 0.0000 0.9630 0.2695
vn -0.2029 0.9767 0.0695
vn -0.2069 0.9562 -0.2069
usemtl None
s 1
f 1/1/1 2/2/2 3/3/1
f 1/1/1 4/4/1 2/2/2
f 5/5/1 6/6/1 7/7/1
f 5/5/1 8/8/1 6/6/1
f 9/9/1 10/10/1 11/11/3
f 12/12/1 13/13/4 14/14/1
f 12/12/1 15/15/4 13/13/4
f 5/5/1 7/7/1 16/16/1
f 17/17/5 18/18/5 19/19/5
f 17/17/5 20/20/5 18/18/5
f 21/21/6 22/22/7 23/23/5
f 24/24/8 25/25/5 26/26/5
f 24/24/8 27/27/4 25/25/5
f 28/28/4 29/29/1 30/30/1
f 31/31/1 32/32/1 33/33/1
f 31/31/1 34/34/9 32/32/1
f 24/24/8 26/26/5 35/35/10
f 36/36/11 37/37/12 38/38/13
f 36/36/11 39/39/14 37/37/12
f 40/40/1 41/41/1 42/42/1
f 43/43/13 44/44/13 45/45/13
f 43/43/13 46/46/1 44/44/13
f 47/47/3 48/48/3 49/49/3
f 21/21/6 50/50/13 22/22/7
f 21/21/6 51/51/13 50/50/13
f 43/43/13 45/45/13 52/52/13
f 53/53/15 54/54/3 55/55/1
f 53/53/15 56/56/3 54/54/3
f 57/57/1 58/58/1 59/59/3
f 60/60/1 61/61/4 62/62/1
f 60/60/1 63/63/4 61/61/4
f 53/53/15 55/55/1 64/64/4
f 64/64/4 29/29/1 28/28/4
f 64/64/4 55/55/1 29/29/1
f 55/55/1 5/5/1 29/29/1
f 61/61/4 64/64/4 28/28/4
f 61/61/4 63/63/4 64/64/4
f 63/63/4 53/53/15 64/64/4
f 62/62/1 15/15/4 12/12/1
f 62/62/1 61/61/4 15/15/4
f 61/61/4 28/28/4 15/15/4
f 59/59/3 48/48/3 47/47/3
f 59/59/3 58/58/1 48/48/3
f 58/58/1 9/9/1 48/48/3
f 54/54/3 59/59/3 47/47/3
f 54/54/3 56/56/3 59/59/3
f 56/56/3 57/57/1 59/59/3
f 55/55/1 8/8/1 5/5/1
f 55/55/1 54/54/3 8/8/1
f 54/54/3 47/47/3 8/8/1
f 52/52/13 65/65/1 66/66/1
f 52/52/13 45/45/13 65/65/1
f 45/45/13 67/67/1 65/65/1
f 50/50/13 52/52/13 66/66/1
f 50/50/13 51/51/13 52/52/13
f 51/51/13 43/43/13 52/52/13
f 22/22/7 68/68/1 69/69/1
f 22/22/7 50/50/13 68/68/1
f 50/50/13 66/66/1 68/68/1
f 49/49/3 11/11/3 36/36/11
f 49/49/3 48/48/3 11/11/3
f 48/48/3 9/9/1 11/11/3
f 44/44/13 49/49/3 36/36/11
f 44/44/13 46/46/1 49/49/3
f 46/46/1 47/47/3 49/49/3
f 45/45/13 38/38/13 67/67/1
f 45/45/13 44/44/13 38/38/13
f 44/44/13 36/36/11 38/38/13
f 42/42/1 70/70/1 71/71/1
f 42/42/1 41/41/1 70/70/1
f 41/41/1 72/72/1 70/70/1
f 37/37/12 42/42/1 71/71/1
f 37/37/12 39/39/14 42/42/1
f 39/39/14 40/40/1 42/42/1
f 38/38/13 73/73/1 67/67/1
f 38/38/13 37/37/12 73/73/1
f 37/37/12 71/71/1 73/73/1
f 35/35/10 74/74/1 75/75/1
f 35/35/10 26/26/5 74/74/1
f 26/26/5 76/76/1 74/74/1
f 32/32/1 35/35/10 75/75/1
f 32/32/1 34/34/9 35/35/10
f 34/34/9 24/24/8 35/35/10
f 33/33/1 77/77/1 78/78/1
f 33/33/1 32/32/1 77/77/1
f 32/32/1 75/75/1 77/77/1
f 30/30/1 16/16/1 17/17/5
f 30/30/1 29/29/1 16/16/1
f 29/29/1 5/5/1 16/16/1
f 25/25/5 30/30/1 17/17/5
f 25/25/5 27/27/4 30/30/1
f 27/27/4 28/28/4 30/30/1
f 26/26/5 19/19/5 76/76/1
f 26/26/5 25/25/5 19/19/5
f 25/25/5 17/17/5 19/19/5
f 23/23/5 79/79/1 80/80/1
f 23/23/5 22/22/7 79/79/1
f 22/22/7 69/69/1 79/79/1
f 18/18/5 23/23/5 80/80/1
f 18/18/5 20/20/5 23/23/5
f 20/20/5 21/21/6 23/23/5
f 19/19/5 81/81/1 76/76/1
f 19/19/5 18/18/5 81/81/1
f 18/18/5 80/80/1 81/81/1
f 16/16/1 20/20/5 17/17/5
f 16/16/1 7/7/1 20/20/5
f 7/7/1 21/21/6 20/20/5
f 13/13/4 27/27/4 24/24/8
f 13/13/4 15/15/4 27/27/4
f 15/15/4 28/28/4 27/27/4
f 14/14/1 34/34/9 31/31/1
f 14/14/1 13/13/4 34/34/9
f 13/13/4 24/24/8 34/34/9
f 11/11/3 39/39/14 36/36/11
f 11/11/3 10/10/1 39/39/14
f 10/10/1 40/40/1 39/39/14
f 6/6/1 46/46/1 43/43/13
f 6/6/1 8/8/1 46/46/1
f 8/8/1 47/47/3 46/46/1
f 7/7/1 51/51/13 21/21/6
f 7/7/1 6/6/1 51/51/13
f 6/6/1 43/43/13 51/51/13
f 2/2/2 56/56/3 53/53/15
f 2/2/2 4/4/1 56/56/3
f 4/4/1 57/57/1 56/56/3
f 3/3/1 63/63/4 60/60/1
f 3/3/1 2/2/2 63/63/4
f 2/2/2 53/53/15 63/63/4
