# Blender v2.82 (sub 7) OBJ File: ''
# www.blender.org
mtllib arrow.mtl
o line.003
v -0.097656 0.486082 -0.000000
v -0.095781 1.438659 0.019051
v -0.097656 1.438659 -0.000000
v -0.095781 0.486082 0.019051
v -0.090223 1.438659 0.037371
v -0.090223 0.486082 0.037371
v -0.081197 1.438659 0.054254
v -0.081197 0.486082 0.054254
v -0.069055 1.438659 0.069055
v -0.069055 0.486082 0.069055
v -0.054256 1.438659 0.081197
v -0.054256 0.486082 0.081197
v -0.037373 1.438659 0.090223
v -0.037373 0.486082 0.090223
v -0.019053 1.438659 0.095781
v -0.019053 0.486082 0.095781
v 0.000000 1.438659 0.097656
v 0.000000 0.486082 0.097656
v 0.019051 1.438659 0.095781
v 0.019051 0.486082 0.095781
v 0.037371 1.438659 0.090223
v 0.037371 0.486082 0.090223
v 0.054254 1.438659 0.081197
v 0.054254 0.486082 0.081197
v 0.069053 1.438659 0.069055
v 0.069053 0.486082 0.069055
v 0.081197 1.438659 0.054256
v 0.081197 0.486082 0.054256
v 0.090223 1.438659 0.037371
v 0.090223 0.486082 0.037371
v 0.095779 1.438659 0.019053
v 0.095779 0.486082 0.019053
v 0.097656 1.438659 -0.000000
v 0.097656 0.486082 -0.000000
v 0.095779 1.438659 -0.019051
v 0.095779 0.486082 -0.019051
v 0.090223 1.438659 -0.037371
v 0.090223 0.486082 -0.037371
v 0.081197 1.438659 -0.054254
v 0.081197 0.486082 -0.054254
v 0.069053 1.438659 -0.069055
v 0.069053 0.486082 -0.069055
v 0.054256 1.438659 -0.081197
v 0.054256 0.486082 -0.081197
v 0.037371 1.438659 -0.090223
v 0.037371 0.486082 -0.090223
v 0.019053 1.438659 -0.095781
v 0.019053 0.486082 -0.095781
v 0.000000 1.438659 -0.097656
v 0.000000 0.486082 -0.097656
v -0.019051 1.438659 -0.095779
v -0.019051 0.486082 -0.095779
v -0.037371 1.438659 -0.090223
v -0.037371 0.486082 -0.090223
v -0.054254 1.438659 -0.081197
v -0.054254 0.486082 -0.081197
v -0.069055 1.438659 -0.069055
v -0.069055 0.486082 -0.069055
v -0.081197 1.438659 -0.054256
v -0.081197 0.486082 -0.054256
v -0.090223 1.438659 -0.037371
v -0.090223 0.486082 -0.037371
v -0.095781 1.438659 -0.019053
v -0.095781 0.486082 -0.019053
v -0.195312 0.681394 -0.000000
v 0.000000 0.290769 -0.000000
v -0.191561 0.681394 0.038104
v -0.180445 0.681394 0.074742
v -0.162396 0.681394 0.108510
v -0.138107 0.681394 0.138107
v -0.108510 0.681394 0.162396
v -0.074742 0.681394 0.180445
v -0.038104 0.681394 0.191561
v 0.000000 0.681394 0.195312
v 0.038104 0.681394 0.191561
v 0.074742 0.681394 0.180445
v 0.108510 0.681394 0.162396
v 0.138107 0.681394 0.138107
v 0.162396 0.681394 0.108510
v 0.180445 0.681394 0.074742
v 0.191561 0.681394 0.038104
v 0.195312 0.681394 -0.000000
v 0.191561 0.681394 -0.038104
v 0.180445 0.681394 -0.074742
v 0.162396 0.681394 -0.108510
v 0.138107 0.681394 -0.138107
v 0.108510 0.681394 -0.162396
v 0.074742 0.681394 -0.180445
v 0.038104 0.681394 -0.191561
v 0.000000 0.681394 -0.195312
v -0.038104 0.681394 -0.191561
v -0.074742 0.681394 -0.180445
v -0.108510 0.681394 -0.162396
v -0.138107 0.681394 -0.138107
v -0.162396 0.681394 -0.108510
v -0.180445 0.681394 -0.074742
v -0.191561 0.681394 -0.038104
vt 0.654443 0.955463
vt 0.644956 0.492433
vt 0.654443 0.492433
vt 0.644956 0.955463
vt 0.635468 0.492433
vt 0.635468 0.955463
vt 0.625981 0.492433
vt 0.625981 0.955463
vt 0.616494 0.492433
vt 0.616494 0.955463
vt 0.607006 0.492433
vt 0.607006 0.955463
vt 0.597519 0.492433
vt 0.597519 0.955463
vt 0.588032 0.492433
vt 0.588032 0.955463
vt 0.578544 0.492433
vt 0.578544 0.955463
vt 0.569057 0.492433
vt 0.569057 0.955463
vt 0.559570 0.492433
vt 0.559570 0.955463
vt 0.550082 0.492433
vt 0.550082 0.955463
vt 0.540595 0.492433
vt 0.540595 0.955463
vt 0.531108 0.492433
vt 0.531108 0.955463
vt 0.521620 0.492433
vt 0.521620 0.955463
vt 0.512133 0.492433
vt 0.512133 0.955463
vt 0.502646 0.492433
vt 0.502646 0.955463
vt 0.493158 0.492433
vt 0.493158 0.955463
vt 0.483671 0.492433
vt 0.483671 0.955463
vt 0.474184 0.492433
vt 0.474184 0.955463
vt 0.464696 0.492433
vt 0.464696 0.955463
vt 0.455209 0.492433
vt 0.455209 0.955463
vt 0.445722 0.492433
vt 0.445722 0.955463
vt 0.436234 0.492433
vt 0.436234 0.955463
vt 0.426747 0.492433
vt 0.426747 0.955463
vt 0.417260 0.492433
vt 0.417260 0.955463
vt 0.407772 0.492433
vt 0.407772 0.955463
vt 0.398285 0.492433
vt 0.398285 0.955463
vt 0.388798 0.492433
vt 0.388798 0.955463
vt 0.379310 0.492433
vt 0.379310 0.955463
vt 0.369823 0.492433
vt 0.398864 0.055582
vt 0.494063 0.175865
vt 0.454630 0.466254
vt 0.369823 0.955463
vt 0.360336 0.492433
vt 0.360336 0.955463
vt 0.350848 0.492433
vt 0.517961 0.384396
vt 0.564330 0.478902
vt 0.592759 0.042934
vt 0.440962 0.478901
vt 0.426747 0.483172
vt 0.412533 0.478902
vt 0.398864 0.466254
vt 0.386267 0.445716
vt 0.375226 0.418076
vt 0.366164 0.384396
vt 0.359431 0.345971
vt 0.355285 0.304278
vt 0.359431 0.175865
vt 0.353884 0.260918
vt 0.355285 0.217559
vt 0.366164 0.137440
vt 0.375225 0.103760
vt 0.386267 0.076120
vt 0.412532 0.042934
vt 0.454630 0.055582
vt 0.426747 0.038663
vt 0.440962 0.042934
vt 0.467228 0.076120
vt 0.478269 0.103760
vt 0.487330 0.137440
vt 0.498210 0.217558
vt 0.499610 0.260918
vt 0.498210 0.304278
vt 0.494063 0.345971
vt 0.487330 0.384396
vt 0.478269 0.418076
vt 0.467228 0.445716
vt 0.350848 0.955463
vt 0.578544 0.483172
vt 0.619025 0.445716
vt 0.592759 0.478901
vt 0.606428 0.466254
vt 0.630066 0.418076
vt 0.639128 0.384396
vt 0.645861 0.345971
vt 0.650007 0.304278
vt 0.651407 0.260918
vt 0.639128 0.137440
vt 0.650007 0.217558
vt 0.645861 0.175865
vt 0.630066 0.103760
vt 0.619025 0.076120
vt 0.606428 0.055582
vt 0.578544 0.038663
vt 0.564330 0.042934
vt 0.550661 0.055582
vt 0.538064 0.076120
vt 0.527023 0.103760
vt 0.517961 0.137440
vt 0.511228 0.175865
vt 0.507082 0.217559
vt 0.505682 0.260918
vt 0.507082 0.304278
vt 0.511228 0.345971
vt 0.527023 0.418076
vt 0.538064 0.445716
vt 0.550661 0.466254
vt 0.426747 0.506983
vt 0.426747 0.284729
vt 0.440962 0.502712
vt 0.454630 0.490065
vt 0.467228 0.469527
vt 0.478269 0.441887
vt 0.487330 0.408207
vt 0.494063 0.369782
vt 0.498210 0.328089
vt 0.499610 0.284729
vt 0.498210 0.241369
vt 0.494063 0.199676
vt 0.487330 0.161251
vt 0.478269 0.127571
vt 0.467228 0.099931
vt 0.454630 0.079393
vt 0.440962 0.066745
vt 0.426747 0.062475
vt 0.412532 0.066745
vt 0.398864 0.079393
vt 0.386267 0.099931
vt 0.375225 0.127571
vt 0.366164 0.161251
vt 0.359431 0.199676
vt 0.355284 0.241370
vt 0.353884 0.284729
vt 0.355285 0.328089
vt 0.359431 0.369782
vt 0.366164 0.408207
vt 0.375226 0.441887
vt 0.386267 0.469527
vt 0.398864 0.490065
vt 0.412533 0.502713
vt 0.507082 0.241370
vt 0.517961 0.408207
vt 0.564330 0.502713
vt 0.578544 0.506983
vt 0.619025 0.469527
vt 0.592759 0.502712
vt 0.606428 0.490065
vt 0.630066 0.441887
vt 0.639128 0.408207
vt 0.645861 0.369782
vt 0.650007 0.328089
vt 0.651407 0.284729
vt 0.639128 0.161251
vt 0.650007 0.241369
vt 0.645861 0.199676
vt 0.630066 0.127571
vt 0.619025 0.099931
vt 0.606428 0.079393
vt 0.592759 0.066745
vt 0.578544 0.062475
vt 0.538064 0.099931
vt 0.564330 0.066745
vt 0.550661 0.079393
vt 0.527023 0.127571
vt 0.517961 0.161251
vt 0.511228 0.199676
vt 0.505682 0.284729
vt 0.507082 0.328089
vt 0.511228 0.369782
vt 0.527023 0.441887
vt 0.538064 0.469527
vt 0.550661 0.490065
vn -0.9952 -0.0000 0.0979
vn -0.9569 -0.0000 0.2903
vn -0.8819 -0.0000 0.4715
vn -0.7731 -0.0000 0.6342
vn -0.6343 -0.0000 0.7731
vn -0.4715 -0.0000 0.8819
vn -0.2903 -0.0000 0.9569
vn -0.0979 -0.0000 0.9952
vn 0.0979 -0.0000 0.9952
vn 0.2903 -0.0000 0.9569
vn 0.4715 -0.0000 0.8819
vn 0.6343 -0.0000 0.7731
vn 0.7730 -0.0000 0.6344
vn 0.8819 -0.0000 0.4714
vn 0.9570 -0.0000 0.2903
vn 0.9952 -0.0000 0.0980
vn 0.9952 -0.0000 -0.0980
vn 0.9570 0.0000 -0.2902
vn 0.8819 0.0000 -0.4715
vn 0.7731 0.0000 -0.6343
vn 0.6343 0.0000 -0.7731
vn 0.4714 0.0000 -0.8819
vn 0.2903 0.0000 -0.9569
vn 0.0979 0.0000 -0.9952
vn -0.0980 0.0000 -0.9952
vn -0.0981 0.0000 -0.9952
vn -0.2902 0.0000 -0.9570
vn -0.4715 0.0000 -0.8819
vn -0.6342 0.0000 -0.7731
vn -0.7731 0.0000 -0.6343
vn -0.8819 -0.0000 -0.4714
vn 0.0000 -1.0000 -0.0000
vn -0.9569 0.0000 -0.2903
vn -0.9952 0.0000 -0.0979
vn 0.0000 1.0000 -0.0000
vn 0.9952 -0.0000 -0.0981
vn 0.0000 1.0000 -0.0001
vn 0.0000 1.0000 0.0001
vn -0.8910 -0.4455 0.0877
vn -0.8567 -0.4455 0.2599
vn -0.7896 -0.4455 0.4220
vn -0.6921 -0.4455 0.5680
vn -0.5680 -0.4455 0.6921
vn -0.4220 -0.4455 0.7896
vn -0.2599 -0.4455 0.8567
vn -0.0877 -0.4455 0.8910
vn 0.0877 -0.4455 0.8910
vn 0.2599 -0.4455 0.8567
vn 0.4220 -0.4455 0.7896
vn 0.5680 -0.4455 0.6921
vn 0.6921 -0.4455 0.5680
vn 0.7896 -0.4455 0.4220
vn 0.8567 -0.4455 0.2599
vn 0.8910 -0.4455 0.0877
vn 0.8910 -0.4455 -0.0877
vn 0.8567 -0.4455 -0.2599
vn 0.7896 -0.4455 -0.4220
vn 0.6921 -0.4455 -0.5680
vn 0.5680 -0.4455 -0.6921
vn 0.4220 -0.4455 -0.7896
vn 0.2599 -0.4455 -0.8567
vn 0.0877 -0.4455 -0.8910
vn -0.0877 -0.4455 -0.8910
vn -0.2599 -0.4455 -0.8567
vn -0.4220 -0.4455 -0.7896
vn -0.5680 -0.4455 -0.6921
vn -0.6921 -0.4455 -0.5680
vn -0.7896 -0.4455 -0.4220
vn -0.8567 -0.4455 -0.2599
vn -0.8910 -0.4455 -0.0877
usemtl Material.001
s 1
f 1/1/1 2/2/1 3/3/1
f 4/4/2 5/5/2 2/2/2
f 6/6/3 7/7/3 5/5/3
f 8/8/4 9/9/4 7/7/4
f 10/10/5 11/11/5 9/9/5
f 12/12/6 13/13/6 11/11/6
f 14/14/7 15/15/7 13/13/7
f 16/16/8 17/17/8 15/15/8
f 18/18/9 19/19/9 17/17/9
f 20/20/10 21/21/10 19/19/10
f 22/22/11 23/23/11 21/21/11
f 24/24/12 25/25/12 23/23/12
f 26/26/13 27/27/13 25/25/13
f 28/28/14 29/29/14 27/27/14
f 30/30/15 31/31/15 29/29/15
f 32/32/16 33/33/16 31/31/16
f 34/34/17 35/35/17 33/33/17
f 36/36/18 37/37/18 35/35/18
f 38/38/19 39/39/19 37/37/19
f 40/40/20 41/41/20 39/39/20
f 42/42/21 43/43/21 41/41/21
f 44/44/22 45/45/22 43/43/22
f 46/46/23 47/47/23 45/45/23
f 48/48/24 49/49/24 47/47/24
f 50/50/25 51/51/26 49/49/26
f 52/52/27 53/53/27 51/51/27
f 54/54/28 55/55/28 53/53/28
f 56/56/29 57/57/29 55/55/29
f 58/58/30 59/59/30 57/57/30
f 60/60/31 61/61/31 59/59/31
f 38/62/32 22/63/32 6/64/32
f 62/65/33 63/66/33 61/61/33
f 64/67/34 3/68/34 63/66/34
f 55/69/35 63/70/35 31/71/35
f 1/1/1 4/4/1 2/2/1
f 4/4/2 6/6/2 5/5/2
f 6/6/3 8/8/3 7/7/3
f 8/8/4 10/10/4 9/9/4
f 10/10/5 12/12/5 11/11/5
f 12/12/6 14/14/6 13/13/6
f 14/14/7 16/16/7 15/15/7
f 16/16/8 18/18/8 17/17/8
f 18/18/9 20/20/9 19/19/9
f 20/20/10 22/22/10 21/21/10
f 22/22/11 24/24/11 23/23/11
f 24/24/12 26/26/12 25/25/12
f 26/26/13 28/28/13 27/27/13
f 28/28/14 30/30/14 29/29/14
f 30/30/15 32/32/15 31/31/15
f 32/32/16 34/34/16 33/33/16
f 34/34/17 36/36/36 35/35/17
f 36/36/18 38/38/18 37/37/18
f 38/38/19 40/40/19 39/39/19
f 40/40/20 42/42/20 41/41/20
f 42/42/21 44/44/21 43/43/21
f 44/44/22 46/46/22 45/45/22
f 46/46/23 48/48/23 47/47/23
f 48/48/24 50/50/24 49/49/24
f 50/50/25 52/52/25 51/51/26
f 52/52/27 54/54/27 53/53/27
f 54/54/28 56/56/28 55/55/28
f 56/56/29 58/58/29 57/57/29
f 58/58/30 60/60/30 59/59/30
f 60/60/31 62/65/31 61/61/31
f 6/64/32 4/72/32 1/73/32
f 1/73/32 64/74/32 62/75/32
f 62/75/32 60/76/32 58/77/32
f 58/77/32 56/78/32 62/75/32
f 56/78/32 54/79/32 62/75/32
f 54/79/32 52/80/32 46/81/32
f 52/80/32 50/82/32 46/81/32
f 50/82/32 48/83/32 46/81/32
f 46/81/32 44/84/32 42/85/32
f 42/85/32 40/86/32 46/81/32
f 40/86/32 38/62/32 46/81/32
f 38/62/32 36/87/32 30/88/32
f 36/87/32 34/89/32 30/88/32
f 34/89/32 32/90/32 30/88/32
f 30/88/32 28/91/32 26/92/32
f 26/92/32 24/93/32 30/88/32
f 24/93/32 22/63/32 30/88/32
f 22/63/32 20/94/32 18/95/32
f 18/95/32 16/96/32 14/97/32
f 14/97/32 12/98/32 10/99/32
f 10/99/32 8/100/32 14/97/32
f 8/100/32 6/64/32 14/97/32
f 6/64/32 1/73/32 54/79/32
f 1/73/32 62/75/32 54/79/32
f 22/63/32 18/95/32 6/64/32
f 18/95/32 14/97/32 6/64/32
f 54/79/32 46/81/32 38/62/32
f 38/62/32 30/88/32 22/63/32
f 6/64/32 54/79/32 38/62/32
f 62/65/33 64/67/33 63/66/33
f 64/67/34 1/101/34 3/68/34
f 63/70/35 3/102/35 7/103/35
f 3/102/35 2/104/35 7/103/35
f 2/104/35 5/105/35 7/103/35
f 7/103/35 9/106/37 11/107/35
f 11/107/35 13/108/38 15/109/35
f 15/109/35 17/110/35 23/111/35
f 17/110/35 19/112/35 23/111/35
f 19/112/35 21/113/35 23/111/35
f 23/111/35 25/114/35 27/115/35
f 27/115/35 29/116/35 31/71/35
f 31/71/35 33/117/35 35/118/35
f 35/118/35 37/119/35 39/120/35
f 39/120/35 41/121/38 43/122/35
f 43/122/35 45/123/35 39/120/35
f 45/123/35 47/124/35 39/120/35
f 47/124/35 49/125/35 55/69/35
f 49/125/35 51/126/35 55/69/35
f 51/126/35 53/127/35 55/69/35
f 55/69/35 57/128/35 59/129/35
f 59/129/35 61/130/35 55/69/35
f 61/130/35 63/70/35 55/69/35
f 7/103/35 11/107/35 15/109/35
f 23/111/35 27/115/35 31/71/35
f 31/71/35 35/118/35 39/120/35
f 63/70/35 7/103/35 31/71/35
f 7/103/35 15/109/35 31/71/35
f 15/109/35 23/111/35 31/71/35
f 31/71/35 39/120/35 47/124/35
f 47/124/35 55/69/35 31/71/35
usemtl None
s off
f 65/131/39 66/132/39 67/133/39
f 67/133/40 66/132/40 68/134/40
f 68/134/41 66/132/41 69/135/41
f 69/135/42 66/132/42 70/136/42
f 70/136/43 66/132/43 71/137/43
f 71/137/44 66/132/44 72/138/44
f 72/138/45 66/132/45 73/139/45
f 73/139/46 66/132/46 74/140/46
f 74/140/47 66/132/47 75/141/47
f 75/141/48 66/132/48 76/142/48
f 76/142/49 66/132/49 77/143/49
f 77/143/50 66/132/50 78/144/50
f 78/144/51 66/132/51 79/145/51
f 79/145/52 66/132/52 80/146/52
f 80/146/53 66/132/53 81/147/53
f 81/147/54 66/132/54 82/148/54
f 82/148/55 66/132/55 83/149/55
f 83/149/56 66/132/56 84/150/56
f 84/150/57 66/132/57 85/151/57
f 85/151/58 66/132/58 86/152/58
f 86/152/59 66/132/59 87/153/59
f 87/153/60 66/132/60 88/154/60
f 88/154/61 66/132/61 89/155/61
f 89/155/62 66/132/62 90/156/62
f 90/156/63 66/132/63 91/157/63
f 91/157/64 66/132/64 92/158/64
f 92/158/65 66/132/65 93/159/65
f 93/159/66 66/132/66 94/160/66
f 94/160/67 66/132/67 95/161/67
f 95/161/68 66/132/68 96/162/68
f 96/162/69 66/132/69 97/163/69
f 97/163/70 66/132/70 65/131/70
f 89/164/35 93/165/35 97/166/35
f 97/166/35 65/167/35 69/168/35
f 65/167/35 67/169/35 69/168/35
f 67/169/35 68/170/35 69/168/35
f 69/168/35 70/171/35 71/172/35
f 71/172/35 72/173/35 69/168/35
f 72/173/35 73/174/35 69/168/35
f 73/174/35 74/175/35 77/176/35
f 74/175/35 75/177/35 77/176/35
f 75/177/35 76/178/35 77/176/35
f 77/176/35 78/179/35 79/180/35
f 79/180/35 80/181/35 77/176/35
f 80/181/35 81/182/35 77/176/35
f 81/182/35 82/183/35 85/184/35
f 82/183/35 83/185/35 85/184/35
f 83/185/35 84/186/35 85/184/35
f 85/184/35 86/187/35 87/188/35
f 87/188/35 88/189/35 85/184/35
f 88/189/35 89/164/35 85/184/35
f 89/164/35 90/190/35 93/165/35
f 90/190/35 91/191/35 93/165/35
f 91/191/35 92/192/35 93/165/35
f 93/165/35 94/193/35 95/194/35
f 95/194/35 96/195/35 93/165/35
f 96/195/35 97/166/35 93/165/35
f 97/166/35 69/168/35 73/174/35
f 73/174/35 77/176/35 97/166/35
f 77/176/35 81/182/35 97/166/35
f 81/182/35 85/184/35 97/166/35
f 85/184/35 89/164/35 97/166/35
