# Blender v2.82 (sub 7) OBJ File: ''
# www.blender.org
mtllib grass_block.mtl
o grass_block
v 1.000000 -1.000000 1.000000
v -1.000000 -1.000000 -1.000000
v 1.000000 -1.000000 -1.000000
v -1.000000 1.000000 -1.000000
v 0.999999 1.000000 1.000001
v 1.000000 1.000000 -0.999999
v -1.000000 -1.000000 1.000000
v -1.000000 1.000000 1.000000
vt 0.378812 0.876426
vt 0.257974 0.997265
vt 0.257974 0.876426
vt 0.628173 0.992819
vt 0.516053 0.880698
vt 0.628173 0.880698
vt 0.506775 0.998386
vt 0.383513 0.875123
vt 0.506775 0.875123
vt 0.506782 0.998376
vt 0.383519 0.875113
vt 0.506782 0.875113
vt 0.506886 0.875093
vt 0.383623 0.998355
vt 0.383623 0.875093
vt 0.383609 0.875100
vt 0.506872 0.998363
vt 0.383609 0.998363
vt 0.378812 0.997265
vt 0.516053 0.992819
vt 0.383513 0.998386
vt 0.383519 0.998376
vt 0.506886 0.998355
vt 0.506872 0.875100
vn 0.0000 -1.0000 -0.0000
vn -0.0000 1.0000 0.0000
vn 1.0000 0.0000 0.0000
vn -0.0000 -0.0000 1.0000
vn -1.0000 0.0000 0.0000
vn 0.0000 0.0000 -1.0000
usemtl None
s 1
f 1/1/1 2/2/1 3/3/1
f 4/4/2 5/5/2 6/6/2
f 6/7/3 1/8/3 3/9/3
f 5/10/4 7/11/4 1/12/4
f 7/13/5 4/14/5 2/15/5
f 3/16/6 4/17/6 6/18/6
f 1/1/1 7/19/1 2/2/1
f 4/4/2 8/20/2 5/5/2
f 6/7/3 5/21/3 1/8/3
f 5/10/4 8/22/4 7/11/4
f 7/13/5 8/23/5 4/14/5
f 3/16/6 2/24/6 4/17/6
